<svg width="1863" height="2023" viewBox="0 0 1863 2023" fill="none" xmlns="http://www.w3.org/2000/svg">
<path fill-rule="evenodd" clip-rule="evenodd" d="M1155.98 667.841C1149.44 677.534 1147.4 683.714 1147.83 692.824C1148.14 698.287 1148.08 698.811 1147.15 698.095C1146.66 697.637 1144.01 695.297 1141.29 692.824C1138.64 690.417 1134.75 687.294 1132.71 685.862C1128.94 683.322 1128.94 683.263 1129.13 680.398C1129.26 677.859 1129.01 677.143 1127.22 675.127C1122.53 669.79 1115 672.329 1115 679.357C1115 685.278 1120.93 688.985 1126.05 686.253L1127.71 685.278L1140.12 698.095C1146.9 705.123 1153.82 712.794 1155.48 715.141C1158.94 719.955 1168.07 734.203 1167.82 734.462C1167.76 734.528 1165.91 733.878 1163.75 732.904C1158.44 730.689 1152.88 730.689 1143.38 733.036C1137.39 734.535 1135.48 734.727 1131.04 734.402C1127.03 734.077 1125.49 734.21 1124.62 734.86C1122.71 736.358 1123.82 738.698 1127.77 741.622C1136.04 747.676 1142.58 749.95 1150.79 749.426C1156.84 749.101 1161.16 747.537 1166.84 743.704C1168.94 742.272 1171.03 741.231 1171.46 741.43C1172.89 741.947 1191.03 778.58 1193.25 785.409C1193.87 787.232 1193.81 787.424 1192.88 787.1C1192.33 786.907 1189.61 786.317 1186.89 785.734C1182.14 784.693 1175.91 782.094 1173.31 780.012C1172.39 779.296 1172.14 778.387 1172.33 776.107C1172.57 770.968 1170.17 767.912 1165.79 767.845C1163.68 767.845 1162.95 768.17 1161.59 769.927C1158.07 774.35 1161.16 782.16 1166.46 782.16C1167.76 782.16 1168.93 782.684 1169.67 783.526C1172.57 786.974 1180.78 790.096 1189.91 791.27L1195.84 792.052L1197.38 797.39C1199.48 804.743 1201.15 812.029 1202.32 819.117C1203.43 825.946 1205.03 838.372 1204.78 838.637C1204.72 838.703 1203.61 837.138 1202.32 835.189C1197.93 828.426 1193.62 824.912 1182.69 819.25C1177.2 816.452 1170.84 812.613 1168.56 810.79C1163.99 807.15 1162.14 806.818 1160.9 809.357C1158.49 814.43 1167.26 831.343 1175.72 837.98C1180.59 841.753 1185.65 844.226 1192.13 845.917C1195.03 846.699 1199.23 847.866 1201.51 848.582L1205.59 849.815L1206.02 853.787C1206.27 855.935 1206.27 860.616 1206.02 864.197C1205.16 877.205 1205.65 883 1207.63 883C1207.93 883 1208.74 881.893 1209.29 880.527C1210.22 878.445 1210.34 875.713 1210.34 860.881C1210.34 841.753 1209.17 828.937 1205.65 810.591C1203 796.475 1203.12 795.759 1211.2 772.341C1215.15 760.824 1214.91 749.963 1210.53 739.096C1208.68 734.475 1206.95 734.216 1205.71 738.447C1205.28 739.746 1203.19 744.235 1201.08 748.332C1198.93 752.43 1196.7 757.376 1196.21 759.325C1194.85 764.205 1194.98 770.517 1196.45 776.239C1197.2 778.838 1197.62 781.119 1197.51 781.252C1197.44 781.384 1196.52 779.495 1195.59 777.088C1194.61 774.681 1191.21 767.394 1188.06 760.89L1182.32 749.048L1183.43 744.301C1185.16 737.213 1185.47 731.81 1184.55 725.438C1183.74 719.908 1183.81 719.842 1185.16 718.41C1187.32 716.262 1187.14 712.356 1184.79 709.89C1182.33 707.291 1178.07 707.225 1175.66 709.698C1174.3 711.13 1174.12 711.78 1174.43 714.379C1174.74 717.435 1176.89 720.366 1178.87 720.366C1179.42 720.366 1179.92 721.539 1180.23 723.422C1180.84 727.394 1180.72 740.402 1179.98 742.285C1179.49 743.651 1179.3 743.459 1177.39 740.011C1173.19 732.592 1164.74 719.258 1160.91 714.054C1158.26 710.54 1156.96 708.133 1156.96 706.966C1156.96 706.058 1157.95 702.868 1159.18 700.004C1160.41 697.14 1161.83 693.301 1162.27 691.484C1163.32 687.453 1163.38 673.006 1162.45 667.217C1161.46 661.429 1160.17 661.555 1155.97 667.867L1155.98 667.841ZM1159.56 683.389C1159 688.527 1158.33 691.849 1156.72 696.072C1154.75 701.469 1154.62 701.735 1154 700.044C1151.04 692.107 1152.03 682.48 1156.84 672.588L1159.06 667.967L1159.61 672.197C1159.99 674.928 1159.99 678.9 1159.55 683.389H1159.56ZM1164.37 737.777L1167.77 739.01L1163.94 741.092C1154.62 746.038 1145.73 746.23 1136.29 741.742C1133.27 740.31 1133.27 740.243 1135.06 740.051C1136.6 739.859 1146.17 737.644 1151.1 736.345C1153.45 735.695 1160.98 736.537 1164.38 737.777H1164.37ZM1208.25 744.48C1209.48 750.142 1209.92 756.123 1209.42 760.744C1208.93 765.1 1203.99 782.797 1203.25 782.797C1203.07 782.797 1202.13 779.932 1201.21 776.418C1199.36 769.39 1199.11 764.059 1200.4 759.047C1201.27 755.665 1207.07 741.158 1207.44 741.483C1207.57 741.616 1207.93 742.982 1208.25 744.473V744.48ZM1170.97 818.839C1173.26 820.397 1177.82 822.87 1181.03 824.435C1188.93 828.141 1192.51 830.813 1197.69 836.601C1201.64 841.09 1204.48 845.254 1203.56 845.254C1203.37 845.254 1202.39 844.863 1201.46 844.345C1200.53 843.822 1196.7 842.33 1193 841.09C1184.42 838.159 1179.48 835.043 1174.3 829.315C1170.17 824.634 1165.04 815.981 1166.53 815.981C1166.65 815.981 1168.68 817.281 1170.97 818.845L1170.97 818.839Z" fill="#7CCF00"/>
<path fill-rule="evenodd" clip-rule="evenodd" d="M909.006 501.1C909.006 501.966 910.772 504.149 913.691 507.002C927.428 520.265 934.423 530.02 938.68 541.695C940.805 547.529 941.722 552.444 942.447 561.13C942.813 565.572 943.482 570.946 943.965 573.001C945.545 579.768 949.56 585.142 955.211 588.056C959.648 590.375 967.43 590.51 971.625 588.387C978.069 585.068 983.175 577.774 983.175 571.669C983.175 569.878 983.417 568.952 983.782 569.216C984.755 569.878 989.315 577.639 996.608 590.97C1000.2 597.601 1004.2 604.835 1005.49 607.018L1007.8 611L1007.98 608.81C1008.1 607.552 1007.67 604.896 1007.13 602.84C1005.12 595.878 994.483 574.319 988.528 565.295C987.618 563.902 986.825 562.442 986.825 562.111C986.825 561.847 987.977 561.583 989.439 561.583C998.864 561.583 1005.37 552.761 1003.3 542.81C1001.11 531.933 994.421 523.24 983.782 517.473C975.269 512.829 966.458 510.578 938.184 505.535C926.634 503.548 916.113 501.553 914.775 501.154C909.483 499.627 909 499.627 909 501.087L909.006 501.1ZM944.876 511.91C981.353 519.204 992.178 525.308 997.284 541.296C998.622 545.609 998.622 547.333 997.16 550.848C995.76 554.228 992.841 555.891 987.066 556.621L983.355 557.088L980.678 553.836C972.716 544.284 963.775 534.867 957.213 529.094C950.223 522.929 933.804 510.524 932.651 510.524C932.347 510.524 932.106 510.193 932.106 509.861C932.106 509.463 932.713 509.334 933.506 509.53C934.237 509.726 939.343 510.788 944.876 511.917V511.91ZM937.701 519.339C944.572 524.714 951.865 531.082 957.64 536.652C963.353 542.222 976.241 557.284 977.518 559.866C978.732 562.388 979.284 571.277 978.367 574.326C977.456 577.314 974.048 581.026 970.646 582.749C964.809 585.798 956.178 583.743 952.467 578.504C950.038 574.989 949.244 571.737 948.272 561.124C947.726 555.682 946.754 549.05 946.084 546.332C943.835 537.578 937.695 525.369 932.161 518.805C930.947 517.345 929.119 515.155 928.146 513.897L926.325 511.639L929.367 513.431C931.071 514.425 934.776 517.081 937.695 519.332L937.701 519.339Z" fill="#7CCF00"/>
<path fill-rule="evenodd" clip-rule="evenodd" d="M251.996 495.719C240.939 499.156 232.842 504.927 224.996 514.983L222.528 518.162L219.254 515.954C216.351 514.07 215.363 513.812 211.843 513.812C201.277 513.879 189.043 525.229 182.375 541.188C181.078 544.368 179.963 547.025 179.844 547.158C179.781 547.29 178.301 546.768 176.633 545.988C169.587 542.874 162.176 545.016 155.445 552.215C147.165 561.1 143.091 573.165 143.091 589.057C143.091 600.276 145.748 612.341 149.948 620.195L151.799 623.566L147.908 631.737C142.719 642.572 138.765 655.021 139.011 659.628C139.193 662.742 139.319 663 140.742 663C142.165 663 142.537 662.22 145.503 654.115C149.274 643.604 152.051 636.927 155.634 630.118L158.228 625.12L162.617 624.34C166.073 623.758 170.028 623.758 181.21 624.34C200.301 625.444 206.661 624.531 213.77 619.798C217.541 617.266 221.369 612.665 222.358 609.677C222.729 608.447 222.912 606.107 222.729 604.553C222.421 601.307 222.729 601.05 227.427 601.05C238.483 600.983 256.831 593.46 260.169 587.557C261.529 585.025 261.529 581.785 260.043 579.187L258.809 577.178L264.186 576.722C284.574 574.97 300.145 564.267 300.145 552.01C300.145 549.286 299.774 548.05 298.105 545.459L296.065 542.213L300.082 541.499C311.573 539.423 322.573 531.378 325.224 523.074C327.138 516.847 325.533 511.142 320.156 505.496C314.778 499.916 306.996 497.061 297.047 497.061C290.373 497.061 285.185 498.231 279.19 501.212C275.236 503.096 274.311 503.03 274.185 500.822C274.122 499.718 271.464 496.803 269.242 495.375C266.15 493.431 258.922 493.557 252.002 495.699L251.996 495.719ZM267.687 500.65C268.549 501.496 269.727 503.764 270.344 505.708C271.269 508.953 271.578 509.277 273.309 509.469C274.607 509.601 276.338 509.013 278.561 507.585C284.492 503.89 289.372 502.329 295.801 502.005C308.098 501.291 318.348 506.481 321.44 515.042C323.046 519.452 322.057 522.44 317.486 527.173C311.8 533.01 300 538.134 292.281 538.134C286.35 538.134 285.607 540.6 290.43 544.361C292.161 545.789 294.201 547.991 294.818 549.293C295.933 551.369 295.933 551.884 295.253 554.35C293.276 561.292 284.07 567.585 270.785 570.891C263.802 572.643 263.122 572.709 257.87 571.995C249.036 570.825 247.802 572.775 253.482 579.062C255.333 581.138 256.882 583.081 256.882 583.405C256.882 584.833 253.671 587.947 250.27 589.89C243.105 593.91 231.116 596.508 219.934 596.508C214.682 596.508 212.397 597.156 212.397 598.716C212.397 599.232 213.385 600.858 214.557 602.345C215.728 603.839 216.716 605.651 216.716 606.305C216.716 609.287 213.379 613.504 209.362 615.646C205.324 617.766 196.2 618.848 181.991 618.892H161.848L162.837 617.074C165.866 611.627 176.551 597.744 183.351 590.413C192.556 580.49 202.876 571.605 214.985 563.235C226.167 555.454 233.641 551.104 256.315 538.914C276.514 528.145 280.469 525.811 280.783 524.707C281.155 523.603 279.423 524.192 265.521 529.963C252.235 535.542 233.641 544.751 223.202 551.045C196.265 567.261 174.208 588.343 158.392 612.863L154.374 619.223L152.215 612.09C151.044 608.196 149.62 602.035 149.003 598.405C145.912 579.075 152.649 558.059 164.014 551.64C169.02 548.784 170.745 548.718 175.631 551.448C182.117 554.952 182.18 554.886 186.814 544.249C190.088 536.594 193.362 531.662 198.368 526.604C203.128 521.871 207.756 519.339 211.899 519.339C214.494 519.339 215.174 519.663 217.957 522.261C222.717 526.671 223.082 526.545 230.002 517.719C235.933 510.13 239.207 507.407 246.499 503.771C252.921 500.657 257.373 499.361 262.253 499.295C265.401 499.229 266.389 499.487 267.687 500.657V500.65Z" fill="#7CCF00"/>
<path fill-rule="evenodd" clip-rule="evenodd" d="M711.673 1198.31C707.435 1199.69 705.128 1204.73 704.626 1213.63C704.187 1221.35 705.808 1229.53 710.612 1244.58C712.608 1250.8 714.164 1255.9 714.101 1255.9C714.037 1255.9 712.105 1253.54 709.799 1250.6C695.957 1233.25 677 1226.71 677 1239.21C677 1248.83 693.835 1265.13 716.719 1277.56C724.015 1281.56 724.078 1281.62 724.949 1284.63C726.385 1289.93 726.074 1299.75 724.199 1308.06C722.331 1316.24 721.956 1322 723.386 1322C724.568 1322 727.44 1318.34 728.813 1315.13C729.436 1313.69 730.561 1310.03 731.304 1306.95C732.988 1300.21 733.173 1289.41 731.743 1284.64L730.808 1281.63L735.486 1276.46C748.018 1262.71 755.377 1248.91 757.5 1235.3C759.807 1219.98 753.82 1208.86 745.965 1213.96C742.038 1216.51 738.606 1223.25 734.367 1236.8L731.438 1246.15L730.999 1239.08C730.129 1225.73 727.879 1215.39 724.079 1207.48C722.02 1203.22 717.717 1198.31 716.033 1198.31C715.537 1198.31 714.787 1198.18 714.285 1198.05C713.847 1197.92 712.665 1198.05 711.667 1198.31H711.673ZM717.285 1205.64C721.212 1210.55 724.453 1221.42 725.642 1233.59C725.953 1237.32 726.265 1246.22 726.265 1253.35V1266.38L727.822 1267.16C729.131 1267.75 729.633 1267.75 730.376 1266.9C730.872 1266.38 732.81 1260.49 734.679 1253.88C739.668 1235.75 743.347 1225.74 746.963 1220.37C750.141 1215.66 752.823 1220.76 752.263 1230.58C751.704 1240.66 748.145 1250.22 740.538 1261.86C736.547 1267.95 727.879 1278.15 726.697 1278.15C726.385 1278.15 724.949 1277.17 723.519 1275.99C722.083 1274.81 716.039 1270.43 710.053 1266.31C693.53 1254.86 684.861 1246.74 682.618 1240.59C681.62 1237.71 682.554 1237.19 686.482 1238.5C694.152 1241.11 702.071 1248.51 712.982 1263.3C719.217 1271.74 720.342 1272.99 721.772 1272.79C724.765 1272.4 724.892 1270.83 722.585 1264.22C717.66 1249.96 712.48 1233.53 711.235 1228.1C707.555 1212.13 711.298 1198.26 717.285 1205.66V1205.64Z" fill="#7CCF00"/>
<path fill-rule="evenodd" clip-rule="evenodd" d="M1427.63 675.31C1424.95 677.386 1418.05 681.406 1411.45 684.785C1405.1 687.965 1397.57 692.243 1394.65 694.26C1382.39 702.756 1373.24 715.345 1370.06 728.252C1368.44 734.612 1367.76 742.137 1368.44 745.899C1368.94 748.755 1368.82 750.051 1367.82 753.489C1364.15 765.748 1362.59 780.155 1363.09 796.89C1363.53 809.28 1364.58 816.739 1366.08 817.651C1368.13 819.013 1368.38 817.195 1368.69 797.346C1369 776.393 1369.87 768.478 1373.17 756.478C1374.54 751.611 1374.98 750.831 1378.28 747.591C1380.27 745.647 1385 741.885 1388.73 739.221C1412.07 722.81 1421.53 710.611 1431.74 684.143C1435.28 674.999 1435.72 672.725 1434.1 672.077C1433.11 671.689 1430.95 672.771 1427.63 675.323V675.31ZM1424.27 689.585C1418.11 702.822 1410.33 714.043 1402.24 721.441C1393.96 728.966 1380.33 739.67 1380.33 738.632C1380.33 737.66 1386.8 727.28 1390.91 721.633C1393.09 718.585 1399.68 711.252 1405.47 705.282C1418.73 691.721 1418.92 690.359 1406.29 699.834C1392.34 710.214 1384.13 719.557 1376.04 734.282C1374.29 737.462 1372.86 739.664 1372.86 739.148C1372.86 736.292 1375.73 726.433 1377.84 721.825C1384.07 708.396 1393.59 699.767 1413.57 689.519C1418.73 686.861 1423.96 684.005 1425.14 683.099C1426.32 682.252 1427.45 681.671 1427.57 681.803C1427.7 681.935 1426.27 685.433 1424.28 689.585H1424.27Z" fill="#7CCF00"/>
<path fill-rule="evenodd" clip-rule="evenodd" d="M1491.39 763.581C1488.9 766.095 1488.85 766.286 1489.1 769.7C1489.35 772.537 1489.8 773.693 1491.2 775.177C1495.72 779.944 1502.91 778.46 1505.2 772.34C1507.75 765.577 1504.06 761 1496.17 761C1494.39 761 1493.37 761.578 1491.4 763.574L1491.39 763.581ZM1498.71 768.157C1499.59 769.576 1498.83 771.316 1497.3 771.316C1495.9 771.316 1495.14 769.773 1495.72 767.967C1496.16 766.548 1497.75 766.68 1498.71 768.157Z" fill="#7CCF00"/>
<path fill-rule="evenodd" clip-rule="evenodd" d="M581.631 283.31C578.954 285.386 572.047 289.406 565.45 292.785C559.1 295.965 551.571 300.243 548.647 302.26C536.385 310.756 527.239 323.345 524.061 336.252C522.443 342.612 521.758 350.137 522.443 353.899C522.938 356.755 522.817 358.051 521.821 361.489C518.149 373.748 516.595 388.155 517.089 404.89C517.527 417.28 518.58 424.739 520.077 425.651C522.132 427.013 522.38 425.195 522.691 405.346C523.001 384.393 523.87 376.478 527.169 364.478C528.539 359.611 528.977 358.831 532.275 355.591C534.267 353.647 538.999 349.885 542.729 347.221C566.065 330.81 575.529 318.611 585.735 292.143C589.281 282.999 589.719 280.725 588.101 280.077C587.108 279.689 584.951 280.771 581.631 283.323V283.31ZM578.269 297.585C572.11 310.822 564.327 322.043 556.24 329.441C547.962 336.966 534.33 347.67 534.33 346.632C534.33 345.66 540.8 335.28 544.911 329.633C547.086 326.585 553.683 319.252 559.475 313.282C572.732 299.721 572.916 298.359 560.287 307.834C546.344 318.214 538.13 327.557 530.036 342.282C528.292 345.462 526.864 347.664 526.864 347.148C526.864 344.292 529.725 334.433 531.844 329.825C538.066 316.396 547.588 307.767 567.569 297.519C572.732 294.861 577.965 292.005 579.145 291.099C580.325 290.252 581.447 289.671 581.574 289.803C581.701 289.935 580.267 293.433 578.276 297.585H578.269Z" fill="#7CCF00"/>
<path fill-rule="evenodd" clip-rule="evenodd" d="M645.389 371.581C642.905 374.095 642.846 374.286 643.099 377.7C643.352 380.537 643.8 381.693 645.201 383.177C649.722 387.944 656.908 386.46 659.204 380.34C661.746 373.577 658.056 369 650.169 369C648.385 369 647.367 369.578 645.395 371.574L645.389 371.581ZM652.705 376.157C653.594 377.576 652.835 379.316 651.304 379.316C649.903 379.316 649.138 377.773 649.715 375.967C650.163 374.548 651.752 374.68 652.705 376.157Z" fill="#7CCF00"/>
<path fill-rule="evenodd" clip-rule="evenodd" d="M305.513 1291.37C302.312 1292.09 300.831 1292.88 297.506 1295.77C291.902 1300.56 285.438 1312.6 281.56 1325.42C280.141 1329.95 279.037 1332.71 278.604 1332.52C271.337 1329.03 269.925 1328.71 265.307 1328.97C261.736 1329.16 259.947 1329.62 258.284 1330.81C253.358 1334.03 250.528 1340.6 250.528 1348.82C250.591 1354.67 251.206 1357.82 254.036 1365.58L256.314 1371.7L253.911 1374C243.136 1384.19 240.613 1388.59 240.18 1397.8C239.998 1402.4 240.18 1404.11 241.228 1407.2C243.876 1414.56 250.34 1418.51 257.174 1416.93C264.252 1415.22 272.567 1406.41 285.865 1386.55C288.268 1383 290.239 1380.24 290.358 1380.38C290.791 1380.77 285.124 1393.85 281.861 1400.03C268.871 1424.75 250.949 1444.94 226.569 1462.36C217.212 1469.07 208.345 1473.86 196.334 1478.6C187.404 1482.15 172.073 1487.28 170.348 1487.28C168.622 1487.28 168.503 1488.59 170.285 1489.31C172.745 1490.37 181.185 1490.17 185.923 1488.99C196.572 1486.36 212.154 1479.72 221.511 1473.8C233.145 1466.37 249.524 1451.84 259.565 1439.94C275.021 1421.66 286.411 1402.14 294.726 1379.53C298.296 1369.8 298.541 1367.43 296.018 1367.1C293.803 1366.84 292.448 1368.42 281.12 1383.93C263.079 1408.72 256.678 1414.04 250.026 1409.7C247.196 1407.86 245.596 1403.85 245.596 1398.53C245.596 1391.89 247.441 1388.34 254.896 1380.71C260.682 1374.73 260.989 1374.33 260.989 1371.71C260.989 1370 260.129 1366.91 258.586 1363.22C255.504 1355.73 254.582 1351.32 255.015 1346.27C255.323 1341.54 257.23 1337.26 259.941 1335.16C261.297 1334.11 262.589 1333.78 265.79 1333.78C269.423 1333.78 270.408 1334.11 274.042 1336.28C278.535 1338.97 281.183 1339.37 282.721 1337.52C283.273 1336.87 284.999 1332.4 286.536 1327.59C293.433 1306.23 301.559 1295.58 310.245 1296.83C320.649 1298.27 324.471 1315.56 318.497 1334.23C317.693 1336.86 317.022 1339.3 317.022 1339.82C317.022 1341.46 319.425 1343.3 321.515 1343.3C328.594 1343.3 335.741 1349.03 337.712 1356.12C339.682 1363.42 337.586 1371.64 332.233 1377.95C327 1384.07 320.103 1386.69 314.687 1384.66C313.332 1384.2 312.472 1384.2 311.55 1384.72C309.887 1385.64 309.887 1388.34 311.55 1393.93C312.409 1397.02 312.78 1399.98 312.78 1404.52C312.78 1418.33 308.098 1427.92 299.79 1431.08C296.652 1432.26 295.359 1432.32 292.153 1431.34C288.889 1430.35 286.674 1427.72 283.719 1421.08C282.363 1418.12 281.008 1415.63 280.7 1415.63C279.84 1415.63 279.96 1418.59 281.008 1423.38C283.286 1433.7 287.471 1437.58 296.401 1437.58C300.524 1437.58 301.817 1437.32 304.528 1435.81C311.117 1432.19 314.813 1427.26 317.455 1418.58C318.81 1414.18 319.055 1412.07 319.055 1405.43C319.118 1401.09 318.81 1396.36 318.377 1394.98C318.007 1393.54 317.825 1392.22 317.944 1392.02C318.126 1391.89 319.733 1391.5 321.515 1391.23C337.524 1388.93 348.731 1367.17 342.017 1351.46C339.124 1344.69 332.472 1338.97 326.071 1337.78C323.975 1337.39 323.73 1337.13 324.038 1335.87C326.379 1327.26 326.498 1326.15 326.561 1317.66C326.561 1310.11 326.316 1308.13 325.142 1304.38C322.005 1294.72 314.179 1289.53 305.5 1291.37H305.513Z" fill="#7CCF00"/>
<path fill-rule="evenodd" clip-rule="evenodd" d="M226.065 908.28C225.014 909.649 222.482 913.038 220.442 915.776C215.498 922.428 206.846 930.902 200.485 935.467C193.073 940.684 184.358 944.858 169.156 950.4C142.833 959.983 135.295 964.356 125.225 975.375C112.309 989.656 105.886 1008.63 105.08 1034.71C104.589 1051.67 106.377 1061.78 110.086 1062.75C113.858 1063.73 114.721 1061.9 113.298 1055.77C112.744 1053.3 111.938 1047.36 111.566 1042.47C110.823 1032.69 111.384 1027.86 114.532 1017.24C115.955 1012.48 116.573 1011.43 120.093 1007.78C122.876 1004.84 125.282 1002.95 128.494 1001.39C136.466 997.538 138.815 997.079 163.589 995.192C180.951 993.823 194.112 989.517 205.851 981.236C220.435 970.935 227.476 958.156 230.631 936.371C231.991 926.589 232.482 909.895 231.437 907.808C230.14 905.263 228.288 905.395 226.059 908.266L226.065 908.28ZM227.237 921.385C224.888 946.36 219.327 961.033 208.388 971.201C196.524 982.22 180.214 988.088 156.177 989.982C142.335 991.025 134.671 992.786 127.757 996.501L124.973 997.937L127.442 995.199C134.117 987.829 144.867 982.286 163.897 976.551C183.98 970.424 191.146 966.509 204.371 954.248C209.44 949.556 206.474 950.659 198.993 956.202C194.975 959.265 190.712 962.329 189.54 963.047C185.277 965.785 177.368 968.589 164.515 972.045C142.272 977.98 131.831 983.13 122.744 992.587C119.201 996.326 117.801 997.239 118.544 995.325C120.458 990.567 125.219 983.389 129.545 978.697C138.506 968.849 146.473 964.482 173.167 954.766C184.351 950.726 194.673 945.635 201.839 940.618C208.08 936.251 219.264 924.708 224.145 917.537C225.996 914.799 227.665 912.779 227.791 913.171C227.917 913.497 227.665 917.212 227.237 921.385Z" fill="#7CCF00"/>
<path fill-rule="evenodd" clip-rule="evenodd" d="M1236.07 339.28C1235.01 340.649 1232.48 344.038 1230.44 346.776C1225.5 353.428 1216.85 361.902 1210.49 366.467C1203.07 371.684 1194.36 375.858 1179.16 381.4C1152.83 390.983 1145.29 395.356 1135.23 406.375C1122.31 420.656 1115.89 439.63 1115.08 465.714C1114.59 482.667 1116.38 492.775 1120.09 493.752C1123.86 494.729 1124.72 492.902 1123.3 486.774C1122.74 484.295 1121.94 478.361 1121.57 473.47C1120.82 463.687 1121.38 458.862 1124.53 448.236C1125.96 443.478 1126.57 442.434 1130.09 438.779C1132.88 435.842 1135.28 433.954 1138.49 432.386C1146.47 428.538 1148.81 428.079 1173.59 426.192C1190.95 424.823 1204.11 420.517 1215.85 412.236C1230.44 401.935 1237.48 389.156 1240.63 367.371C1241.99 357.589 1242.48 340.895 1241.44 338.808C1240.14 336.263 1238.29 336.395 1236.06 339.266L1236.07 339.28ZM1237.24 352.385C1234.89 377.36 1229.33 392.033 1218.39 402.201C1206.52 413.22 1190.21 419.088 1166.18 420.982C1152.34 422.025 1144.67 423.786 1137.76 427.501L1134.97 428.937L1137.44 426.199C1144.12 418.829 1154.87 413.286 1173.9 407.551C1193.98 401.424 1201.15 397.509 1214.37 385.248C1219.44 380.556 1216.47 381.659 1208.99 387.202C1204.98 390.265 1200.71 393.329 1199.54 394.047C1195.28 396.785 1187.37 399.589 1174.51 403.045C1152.27 408.98 1141.83 414.13 1132.74 423.587C1129.2 427.326 1127.8 428.239 1128.54 426.325C1130.46 421.567 1135.22 414.389 1139.55 409.697C1148.51 399.849 1156.47 395.482 1183.17 385.766C1194.35 381.726 1204.67 376.635 1211.84 371.618C1218.08 367.251 1229.26 355.708 1234.14 348.537C1236 345.799 1237.66 343.779 1237.79 344.171C1237.92 344.497 1237.66 348.212 1237.24 352.385Z" fill="#7CCF00"/>
<path fill-rule="evenodd" clip-rule="evenodd" d="M384.164 1143.93C377.657 1145.38 373.615 1149.58 373.048 1155.43C372.289 1163.78 380.624 1170.82 388.65 1168.58C392.248 1167.59 395.852 1163.72 397.236 1159.37C399.759 1151.49 395.724 1142.8 389.66 1143C388.65 1143.07 386.127 1143.47 384.164 1143.92V1143.93ZM390.793 1149.38C392.306 1151.09 392.75 1154.31 391.868 1157.01C390.986 1159.84 387.955 1162.66 385.805 1162.66C381.827 1162.66 378.165 1158.46 378.925 1154.84C379.427 1152.27 382.272 1149.64 385.239 1148.92C389.03 1148 389.66 1148.06 390.793 1149.38Z" fill="#7CCF00"/>
<path fill-rule="evenodd" clip-rule="evenodd" d="M1464.16 1401.96C1457.66 1403.47 1453.61 1407.84 1453.05 1413.91C1452.29 1422.58 1460.62 1429.89 1468.65 1427.56C1472.25 1426.54 1475.85 1422.51 1477.24 1418C1479.76 1409.81 1475.72 1400.79 1469.66 1401C1468.65 1401.07 1466.13 1401.48 1464.16 1401.96V1401.96ZM1470.79 1407.63C1472.31 1409.4 1472.75 1412.75 1471.87 1415.55C1470.99 1418.48 1467.95 1421.42 1465.81 1421.42C1461.83 1421.42 1458.17 1417.05 1458.92 1413.29C1459.43 1410.63 1462.27 1407.9 1465.24 1407.15C1469.03 1406.19 1469.66 1406.26 1470.79 1407.63Z" fill="#7CCF00"/>
<path fill-rule="evenodd" clip-rule="evenodd" d="M481.717 590.857C475.47 592.193 471.59 596.077 471.046 601.477C470.317 609.183 478.319 615.678 486.024 613.612C489.478 612.703 492.938 609.122 494.267 605.114C496.689 597.834 492.815 589.818 486.994 590.003C486.024 590.065 483.602 590.43 481.717 590.851V590.857ZM488.082 595.891C489.534 597.469 489.96 600.444 489.113 602.93C488.267 605.54 485.357 608.151 483.293 608.151C479.474 608.151 475.959 604.266 476.688 600.926C477.17 598.557 479.901 596.133 482.749 595.465C486.389 594.617 486.994 594.673 488.082 595.891Z" fill="#7CCF00"/>
<path fill-rule="evenodd" clip-rule="evenodd" d="M962.24 864.917C961.215 865.4 960.051 866.316 959.64 866.984C958.685 868.624 958.818 873.357 959.912 875.727C961.829 879.792 968.117 880.157 971.881 876.334C973.589 874.632 974 873.722 974 871.353C974 868.073 972.766 866.192 969.894 864.856C967.434 863.705 964.624 863.705 962.233 864.917H962.24ZM967.643 870.381C968.124 871.476 967.162 873.172 965.935 873.537C965.042 873.778 964.087 870.987 964.771 870.078C965.454 869.045 967.162 869.286 967.643 870.381Z" fill="#7CCF00"/>
<path fill-rule="evenodd" clip-rule="evenodd" d="M912.024 1314.04C911.068 1314.59 909.981 1315.62 909.597 1316.38C908.706 1318.24 908.83 1323.6 909.851 1326.29C911.64 1330.9 917.509 1331.31 921.022 1326.98C922.616 1325.05 923 1324.02 923 1321.33C923 1317.62 921.848 1315.48 919.168 1313.97C916.871 1312.67 914.249 1312.67 912.018 1314.04H912.024ZM917.066 1320.23C917.515 1321.47 916.618 1323.39 915.472 1323.81C914.64 1324.08 913.748 1320.92 914.386 1319.89C915.023 1318.72 916.617 1318.99 917.066 1320.23Z" fill="#7CCF00"/>
<path fill-rule="evenodd" clip-rule="evenodd" d="M1261.87 1004.02C1260.51 1005.45 1260.57 1006.23 1263.3 1016.34C1267.83 1033.13 1270.56 1039.62 1277.26 1049.87C1280.8 1055.31 1281.36 1056.55 1282.22 1061.41C1284.08 1071.59 1287.93 1077.37 1295.56 1081.32C1298.42 1082.75 1300.03 1083.07 1305.12 1083.26L1311.2 1083.52L1314.49 1088.19C1320.94 1097.2 1327.39 1102.39 1335.64 1105.24C1339.67 1106.61 1341.91 1106.93 1347.73 1107C1356.11 1107.06 1359.77 1106.28 1366.84 1102.78C1375.84 1098.31 1383.03 1089.1 1382.35 1082.94L1382.1 1080.67L1384.58 1081.06C1395.06 1082.68 1407.16 1082.17 1420.31 1079.44C1427.2 1078.01 1429 1077.3 1429 1076.14C1429 1075.62 1424.97 1075.56 1414.24 1075.81C1401.02 1076.2 1390.23 1075.75 1383.97 1074.58L1381.98 1074.19L1382.91 1071.21C1385.27 1063.17 1381.92 1055.07 1372.92 1047.22C1366.59 1041.64 1360.21 1039.12 1349.72 1038.02C1340.04 1036.98 1339.05 1036.59 1337.01 1033.22C1336.08 1031.66 1333.9 1029.07 1332.23 1027.38C1326.77 1022.06 1321.25 1020.38 1309.96 1020.64L1302.15 1020.77L1290.05 1014.55C1275.6 1007.03 1266.6 1003 1264.43 1003C1263.57 1003 1262.39 1003.46 1261.89 1004.04L1261.87 1004.02ZM1283.96 1016.4L1300.83 1025.35H1309.83C1317.58 1025.42 1319.44 1025.61 1322.54 1026.78C1327.32 1028.66 1329.67 1030.67 1332.96 1035.54C1334.51 1037.8 1336.56 1040.01 1337.86 1040.73C1339.1 1041.37 1343.26 1042.34 1347.48 1042.87C1360.32 1044.62 1365.41 1046.76 1371.79 1053.18C1377.62 1058.95 1378.92 1061.67 1379.23 1068.35L1379.54 1073.8L1376.81 1073.34C1370.48 1072.3 1354.6 1067.64 1346.66 1064.58C1330.84 1058.42 1313.97 1048.95 1287.91 1031.58C1283.57 1028.66 1279.66 1026.39 1279.35 1026.46C1277.43 1027.17 1302.99 1047.01 1317.94 1056.48C1333.51 1066.34 1353.67 1074.7 1370.98 1078.46C1373.71 1079.05 1376.56 1079.69 1377.37 1079.89C1378.36 1080.08 1378.73 1080.67 1378.73 1081.83C1378.73 1088.71 1367.88 1098.31 1356.71 1101.23C1351.93 1102.52 1342.38 1102.46 1337.61 1101.16C1335.56 1100.64 1332.46 1099.41 1330.72 1098.5C1326.38 1096.24 1320.18 1089.75 1317.26 1084.56C1313.97 1078.66 1313.17 1078.2 1306.96 1078.2C1300.76 1078.2 1296.17 1076.58 1292.88 1073.27C1289.78 1070.16 1288.29 1066.79 1286.87 1059.85C1285.75 1054.53 1285.13 1053.16 1281.35 1047.27C1275.76 1038.58 1272.85 1032.16 1268.88 1019.52C1267.14 1013.81 1265.53 1008.75 1265.34 1008.3C1264.73 1006.55 1267.7 1007.84 1283.96 1016.4Z" fill="#7CCF00"/>
<path fill-rule="evenodd" clip-rule="evenodd" d="M1427.44 1005.55C1426.74 1005.81 1425.25 1007.13 1424.1 1008.46C1418.88 1014.53 1424.1 1022.58 1432.08 1020.73C1435.5 1019.94 1437.56 1017.56 1437.95 1014.07C1438.27 1010.37 1437.17 1008.26 1433.96 1006.41C1431.25 1004.83 1429.64 1004.63 1427.45 1005.55H1427.44ZM1432.34 1013.2C1432.34 1014.39 1430.54 1015.38 1429.06 1014.99C1427.52 1014.52 1427.45 1012.35 1428.93 1010.63C1430.02 1009.44 1430.09 1009.44 1431.18 1010.82C1431.82 1011.62 1432.34 1012.67 1432.34 1013.2V1013.2Z" fill="#7CCF00"/>
<path fill-rule="evenodd" clip-rule="evenodd" d="M843.764 745.55C843.144 745.813 841.846 747.131 840.835 748.456C836.269 754.529 840.835 762.58 847.824 760.73C850.811 759.937 852.614 757.562 852.953 754.065C853.234 750.373 852.275 748.261 849.461 746.411C847.095 744.831 845.688 744.629 843.77 745.55H843.764ZM848.048 753.204C848.048 754.395 846.469 755.383 845.177 754.987C843.827 754.522 843.77 752.35 845.062 750.628C846.021 749.438 846.078 749.438 847.032 750.823C847.595 751.617 848.048 752.673 848.048 753.197V753.204Z" fill="#7CCF00"/>
<path fill-rule="evenodd" clip-rule="evenodd" d="M480.024 1593.09C479.536 1593.74 478.611 1595.45 478.124 1596.89C477.017 1599.78 473.523 1603.12 467.266 1607.19C461.685 1610.8 455.797 1613.22 442.977 1617.16C418.074 1624.83 413.724 1627.79 406.361 1641.95C404.092 1646.41 401.391 1651.07 400.473 1652.32L398.754 1654.55L389.065 1655.01C383.671 1655.27 375.389 1655.53 370.607 1655.53C365.826 1655.6 361.531 1655.79 360.981 1655.99C360.431 1656.19 360 1657.11 360 1658.03C360 1659.21 360.55 1659.87 362.331 1660.71C364.232 1661.63 366.563 1661.83 377.17 1661.76C384.284 1661.7 393.178 1661.24 397.654 1660.65L405.504 1659.6L412.986 1663.93C423.287 1669.9 429.482 1672 436.476 1672C446.658 1672 454.203 1668.33 462.722 1659.21C467.198 1654.49 468.854 1652.12 471.123 1647.4C474.555 1640.19 477.255 1631.33 478.849 1621.82C481.361 1607.38 483.324 1593.28 482.955 1592.62C482.405 1591.64 481.118 1591.84 480.011 1593.09H480.024ZM473.092 1609.81C468.004 1620.71 458.984 1631.92 450.89 1637.56C440.095 1644.98 423.781 1651.14 408.88 1653.31L405.936 1653.7L408.023 1650.22C409.186 1648.32 410.967 1644.91 412.074 1642.68C416.549 1633.63 422.318 1629.89 441.883 1623.13C448.752 1620.77 456.234 1617.95 458.378 1616.9C462.672 1614.87 471.623 1608.97 472.854 1607.39C474.511 1605.29 474.636 1606.6 473.098 1609.81H473.092ZM474.623 1619C473.823 1623.72 473.336 1624.44 470.517 1625.04L468.429 1625.43L469.779 1623.27C470.454 1622.15 471.923 1619.6 472.967 1617.69C474.011 1615.78 474.93 1614.35 475.111 1614.54C475.236 1614.67 475.048 1616.71 474.623 1619ZM472.417 1629.3C471.31 1634.41 470.76 1635.07 466.898 1635.46C464.935 1635.66 462.666 1635.72 461.928 1635.53C460.703 1635.13 460.822 1634.87 463.766 1631.33C466.773 1627.66 466.954 1627.53 469.835 1627.59C472.717 1627.66 472.779 1627.73 472.411 1629.3H472.417ZM469.167 1639.33C469.167 1639.59 468.429 1641.43 467.51 1643.46L465.854 1647.07H461.441C456.84 1647.07 448.315 1644.78 449.296 1643.86C449.602 1643.53 451.259 1642.29 452.978 1641.1C456.103 1638.87 456.29 1638.87 462.666 1638.87C466.223 1638.87 469.167 1639.07 469.167 1639.33ZM446.658 1647.4C448.44 1648.65 456.165 1650.36 460.028 1650.36C461.685 1650.36 463.035 1650.55 463.035 1650.88C463.035 1652 457.64 1657.57 456.534 1657.57C453.528 1657.5 446.414 1655.41 442.058 1653.24C439.42 1651.86 437.276 1650.62 437.276 1650.42C437.276 1650.02 443.839 1646.61 444.82 1646.48C445.064 1646.41 445.927 1646.87 446.658 1647.4V1647.4ZM437.582 1655.34C441.264 1657.24 445.308 1658.75 448.683 1659.47C454.696 1660.78 454.696 1660.71 448.683 1664L446.233 1665.24L442.245 1663.8C437.832 1662.23 425.012 1655.53 425.012 1654.88C425.012 1654.68 426.481 1654.02 428.263 1653.5C429.982 1652.91 431.513 1652.45 431.638 1652.38C431.763 1652.38 434.401 1653.69 437.589 1655.34H437.582ZM423.412 1658.55C425.25 1659.8 429.732 1662.16 433.407 1663.74C439.295 1666.3 439.845 1666.69 438.314 1667.08C434.57 1668.13 427.213 1666.29 417.949 1662.16C414.943 1660.85 411.88 1659.47 411.205 1659.2C410.286 1658.81 411.08 1658.41 414.58 1657.57C417.093 1656.91 419.362 1656.38 419.612 1656.32C419.856 1656.25 421.575 1657.3 423.412 1658.55Z" fill="#7CCF00"/>
<path fill-rule="evenodd" clip-rule="evenodd" d="M1381.02 1491.09C1380.54 1491.74 1379.61 1493.45 1379.12 1494.89C1378.02 1497.78 1374.52 1501.12 1368.27 1505.19C1362.68 1508.8 1356.8 1511.22 1343.98 1515.16C1319.07 1522.83 1314.72 1525.79 1307.36 1539.95C1305.09 1544.41 1302.39 1549.07 1301.47 1550.32L1299.75 1552.55L1290.07 1553.01C1284.67 1553.27 1276.39 1553.53 1271.61 1553.53C1266.83 1553.6 1262.53 1553.79 1261.98 1553.99C1261.43 1554.19 1261 1555.11 1261 1556.03C1261 1557.21 1261.55 1557.87 1263.33 1558.71C1265.23 1559.63 1267.56 1559.83 1278.17 1559.76C1285.28 1559.7 1294.18 1559.24 1298.65 1558.65L1306.5 1557.6L1313.99 1561.93C1324.29 1567.9 1330.48 1570 1337.48 1570C1347.66 1570 1355.2 1566.33 1363.72 1557.21C1368.2 1552.49 1369.85 1550.12 1372.12 1545.4C1375.55 1538.19 1378.25 1529.33 1379.85 1519.82C1382.36 1505.38 1384.32 1491.28 1383.96 1490.62C1383.41 1489.64 1382.12 1489.84 1381.01 1491.09H1381.02ZM1374.09 1507.81C1369 1518.71 1359.98 1529.92 1351.89 1535.56C1341.1 1542.98 1324.78 1549.14 1309.88 1551.31L1306.94 1551.7L1309.02 1548.22C1310.19 1546.32 1311.97 1542.91 1313.07 1540.68C1317.55 1531.63 1323.32 1527.89 1342.88 1521.13C1349.75 1518.77 1357.23 1515.95 1359.38 1514.9C1363.67 1512.87 1372.62 1506.97 1373.85 1505.39C1375.51 1503.29 1375.64 1504.6 1374.1 1507.81H1374.09ZM1375.62 1517C1374.82 1521.72 1374.34 1522.44 1371.52 1523.04L1369.43 1523.43L1370.78 1521.27C1371.45 1520.15 1372.92 1517.6 1373.97 1515.69C1375.01 1513.78 1375.93 1512.35 1376.11 1512.54C1376.24 1512.67 1376.05 1514.71 1375.62 1517ZM1373.42 1527.3C1372.31 1532.41 1371.76 1533.07 1367.9 1533.46C1365.93 1533.66 1363.67 1533.72 1362.93 1533.53C1361.7 1533.13 1361.82 1532.87 1364.77 1529.33C1367.77 1525.66 1367.95 1525.53 1370.84 1525.59C1373.72 1525.66 1373.78 1525.73 1373.41 1527.3H1373.42ZM1370.17 1537.33C1370.17 1537.59 1369.43 1539.43 1368.51 1541.46L1366.85 1545.07H1362.44C1357.84 1545.07 1349.31 1542.78 1350.3 1541.86C1350.6 1541.53 1352.26 1540.29 1353.98 1539.1C1357.1 1536.87 1357.29 1536.87 1363.67 1536.87C1367.22 1536.87 1370.17 1537.07 1370.17 1537.33ZM1347.66 1545.4C1349.44 1546.65 1357.17 1548.36 1361.03 1548.36C1362.68 1548.36 1364.03 1548.55 1364.03 1548.88C1364.03 1550 1358.64 1555.57 1357.53 1555.57C1354.53 1555.5 1347.41 1553.41 1343.06 1551.24C1340.42 1549.86 1338.28 1548.62 1338.28 1548.42C1338.28 1548.02 1344.84 1544.61 1345.82 1544.48C1346.06 1544.41 1346.93 1544.87 1347.66 1545.4V1545.4ZM1338.58 1553.34C1342.26 1555.24 1346.31 1556.75 1349.68 1557.47C1355.7 1558.78 1355.7 1558.71 1349.68 1562L1347.23 1563.24L1343.25 1561.8C1338.83 1560.23 1326.01 1553.53 1326.01 1552.88C1326.01 1552.68 1327.48 1552.02 1329.26 1551.5C1330.98 1550.91 1332.51 1550.45 1332.64 1550.38C1332.76 1550.38 1335.4 1551.69 1338.59 1553.34H1338.58ZM1324.41 1556.55C1326.25 1557.8 1330.73 1560.16 1334.41 1561.74C1340.29 1564.3 1340.85 1564.69 1339.31 1565.08C1335.57 1566.13 1328.21 1564.29 1318.95 1560.16C1315.94 1558.85 1312.88 1557.47 1312.2 1557.2C1311.29 1556.81 1312.08 1556.41 1315.58 1555.57C1318.09 1554.91 1320.36 1554.38 1320.61 1554.32C1320.86 1554.25 1322.57 1555.3 1324.41 1556.55Z" fill="#7CCF00"/>
<path fill-rule="evenodd" clip-rule="evenodd" d="M1110.39 1307.78C1109.28 1309.27 1105.37 1323.35 1103.85 1331.4C1102.26 1339.57 1101.89 1347.88 1102.93 1350.74C1103.85 1353.27 1098.66 1396.8 1095.24 1415.75L1093.59 1424.77L1092.49 1419.26C1091.57 1414.92 1089.99 1410.82 1084.98 1400.12C1081.5 1392.6 1077.89 1384.61 1076.98 1382.28C1074.96 1377.09 1074.47 1376.44 1072.64 1376.44C1070.5 1376.44 1070.25 1378.33 1070.32 1393.31C1070.38 1404.86 1070.56 1407.32 1071.72 1411.8C1074.23 1421.73 1079.17 1431.07 1085.71 1438.21L1089.68 1442.62L1088.27 1448.26C1086.63 1454.95 1081.93 1469.87 1078.38 1479.6C1074.59 1489.98 1068.24 1503.41 1061.33 1515.62C1052.73 1530.86 1049.61 1538 1051.56 1538C1052.36 1538 1057.85 1531.58 1060.97 1526.9C1067.68 1516.85 1077.09 1499.07 1081 1489.2C1082.83 1484.47 1083.2 1484.01 1086.68 1481.61C1091.74 1478.24 1096.45 1475.77 1104.75 1472.14C1113.48 1468.37 1117.21 1466.1 1122.16 1461.69C1129.06 1455.46 1137.85 1442.42 1136.93 1439.82C1136.39 1438.27 1134.85 1438.46 1132.66 1440.4C1129.48 1443.26 1123.99 1445.78 1117.45 1447.41C1106.09 1450.27 1100.9 1452.86 1094.24 1458.96L1090.76 1462.14L1091.98 1458.38C1095.64 1447.09 1100.9 1423.08 1103.58 1405.31L1104.99 1396.22L1108.65 1392.33C1110.73 1390.18 1114.76 1386.49 1117.69 1384.02C1123.99 1378.83 1129.36 1371.63 1133.2 1363.19C1136.44 1356.18 1136.81 1352.67 1134.31 1352.03C1131.25 1351.18 1115.86 1363.77 1110.48 1371.5C1108.84 1373.83 1107.49 1375.65 1107.49 1375.58C1107.37 1375.39 1108.04 1368.7 1108.95 1361.05C1109.5 1356.7 1110.3 1353.71 1111.82 1350.15C1115.12 1342.62 1115.91 1337.23 1115.97 1322.18C1116.04 1307.97 1115.85 1307 1112.68 1307C1111.76 1307 1110.72 1307.39 1110.35 1307.78H1110.39ZM1110.93 1334.32C1110.08 1342.88 1108.43 1349.82 1107.33 1349.82C1106.17 1349.82 1106.53 1346.19 1109.16 1332.96C1111.36 1321.86 1112.15 1322.44 1110.93 1334.32ZM1130.42 1360.07C1130.42 1361.57 1123.58 1372.01 1119.97 1376.1C1115.94 1380.58 1108.43 1386.81 1108.43 1385.71C1108.43 1384.67 1113.93 1375.65 1116.55 1372.34C1119.06 1369.09 1129.07 1359.63 1129.99 1359.56C1130.24 1359.56 1130.42 1359.82 1130.42 1360.07H1130.42ZM1082.04 1405.37C1083.76 1409 1085.71 1413.74 1086.38 1415.88C1087.73 1420.03 1090.35 1435.73 1089.92 1436.97C1089.56 1438.07 1083.08 1427.3 1080.28 1420.88C1076.8 1413.03 1075.39 1406.74 1075.08 1397.2L1074.78 1389.09L1076.86 1393.96C1078.02 1396.62 1080.34 1401.81 1082.05 1405.38L1082.04 1405.37ZM1123.09 1454.03C1117.9 1459.61 1112.58 1463.24 1103.43 1467.72C1096.89 1470.83 1092 1473.88 1086.51 1478.1C1083.82 1480.18 1091.27 1469.86 1096.28 1464.6C1101.65 1458.83 1106.6 1455.97 1115.76 1453.32C1118.94 1452.34 1122.54 1451.24 1123.71 1450.72C1127.25 1449.3 1127.19 1449.55 1123.1 1454.03H1123.09Z" fill="#7CCF00"/>
</svg>
