<svg width="60" height="60" viewBox="0 0 60 60" fill="none" xmlns="http://www.w3.org/2000/svg">
<g clip-path="url(#clip0_57_531)">
<g clip-path="url(#clip1_57_531)">
<path d="M15.5661 50.0634C11.4873 47.0144 8.47844 42.7525 6.97073 37.8884C5.46302 33.0244 5.53385 27.8078 7.17307 22.9865C8.81229 18.1652 11.9358 13.9865 16.0958 11.0494C20.2559 8.11236 25.2389 6.56764 30.3308 6.63667C35.4228 6.7057 40.3621 8.38494 44.441 11.4337C48.5199 14.4825 51.5289 18.7443 53.0369 23.6083C54.5448 28.4723 54.4742 33.6888 52.8352 38.5102C51.1961 43.3316 48.0728 47.5104 43.9129 50.4477" stroke="#192E03" stroke-width="3" stroke-linecap="round" stroke-linejoin="round"/>
</g>
<path d="M22.765 41.8121C21.1815 41.8157 19.6387 41.3099 18.3646 40.3696C17.0905 39.4292 16.1525 38.1041 15.6891 36.5899C15.2257 35.0756 15.2615 33.4525 15.7912 31.9602C16.3209 30.4678 17.3165 29.1854 18.6308 28.3021C17.8205 27.2896 17.3336 26.0566 17.2337 24.7636C17.1338 23.4705 17.4253 22.1774 18.0705 21.0524C18.7156 19.9273 19.6845 19.0225 20.8509 18.4557C22.0174 17.8889 23.3275 17.6863 24.6106 17.8743L24.6106 17.819C24.6106 16.3505 25.194 14.9422 26.2323 13.9038C27.2707 12.8655 28.679 12.2821 30.1475 12.2821C31.616 12.2821 33.0243 12.8655 34.0627 13.9038C35.101 14.9422 35.6844 16.3505 35.6844 17.819L35.6844 17.8928C36.9676 17.7048 38.2776 17.9074 39.4441 18.4742C40.6105 19.041 41.5794 19.9458 42.2245 21.0708C42.8697 22.1958 43.1612 23.489 43.0613 24.782C42.9614 26.075 42.4746 27.3081 41.6642 28.3206C42.9703 29.2068 43.958 30.4883 44.4824 31.9771C45.0068 33.4658 45.0402 35.0834 44.5777 36.5926C44.1153 38.1017 43.1813 39.4229 41.9129 40.3623C40.6445 41.3017 39.1084 41.8098 37.53 41.8121L22.765 41.8121Z" stroke="#7CCF00" stroke-width="3" stroke-linecap="round" stroke-linejoin="round"/>
<path d="M30.1475 41.8121L30.1475 47.349" stroke="#7CCF00" stroke-width="3" stroke-linecap="round" stroke-linejoin="round"/>
<path d="M32.29 52.8902C32.29 54.0749 31.3297 55.0352 30.145 55.0352C28.9603 55.0352 28 54.0749 28 52.8902C28 51.7056 28.9603 50.7452 30.145 50.7452C31.3297 50.7452 32.29 51.7056 32.29 52.8902Z" fill="#5EA500"/>
</g>
<defs>
<clipPath id="clip0_57_531">
<rect width="60" height="60" fill="white"/>
</clipPath>
<clipPath id="clip1_57_531">
<rect width="64.305" height="64.305" fill="white" transform="translate(75.0059 24.2437) rotate(126.776)"/>
</clipPath>
</defs>
</svg>
