<svg width="1440" height="195" viewBox="4 0 1440 195" fill="none" xmlns="http://www.w3.org/2000/svg">
<g filter="url(#filter0_d_82_772)">
<path d="M290.501 32.6402C283.585 31.1099 280.18 31.409 277.07 39.176C277.07 39.176 284.181 44.7063 281.811 46.7173C279.441 48.7284 273.91 44.7063 273.91 44.7063C265.039 45.9448 263.049 47.5708 266.8 52.7504L266.888 52.8299C271.847 57.2917 274.656 59.8188 284.181 54.2587C284.181 54.2587 296.822 52.7504 303.142 56.7725C309.463 60.7945 286.551 62.8057 281.811 65.3193C277.07 67.8329 298.173 74.7076 312.623 70.8496C322.001 70.0018 324.525 68.3276 322.104 62.3028C319.326 53.8125 333.164 49.2313 337.115 49.2311C341.065 49.2309 342.645 56.7725 342.645 56.7725C342.645 56.7725 354.898 62.2682 362.396 59.789C368.485 56.0481 369.767 54.7355 371.087 52.7504C372.408 50.7653 376.03 46.9869 376.618 46.7173C377.205 46.4478 374.856 38.8925 371.087 39.176C367.318 39.4595 376.618 32.6402 376.618 32.6402C381.783 31.2905 381.834 22.2153 371.087 22.0823C360.341 21.9493 361.606 22.5852 357.656 25.6016C353.706 28.6179 356.076 32.6402 350.546 35.154C345.015 37.6677 324.474 34.6514 322.104 32.6402C319.733 30.629 334.135 26.3503 326.054 22.0823C317.973 17.8143 323.403 16.7259 312.623 17.0547C301.843 17.3836 296.822 25.6016 296.822 25.6016L290.501 32.6402Z" fill="#465734"/>
<path d="M720.636 67.9625C716.764 65.4169 714.602 65.1786 710.806 72.1877C710.806 72.1877 713.825 78.6208 711.881 80.1935C709.938 81.7662 707.522 77.032 707.522 77.032C701.777 76.8542 700.161 78.1144 701.203 83.6894L701.238 83.7798C703.197 88.8497 704.306 91.7212 711.503 87.8326C711.503 87.8326 719.627 88.3336 722.528 93.1899C725.429 98.0463 710.879 96.4416 707.359 98.1323C703.839 99.823 715.118 109.717 724.924 108.232C730.885 108.865 732.841 107.641 732.819 101.456C733.179 92.8391 742.784 90.5618 745.209 91.1726C747.633 91.7835 746.769 99.3007 746.769 99.3007C746.769 99.3007 752.953 106.496 758.157 105.265C762.802 102.599 763.908 101.532 765.201 99.8217C766.494 98.1117 769.635 95.0282 770.061 94.8592C770.488 94.6902 770.883 87.0408 768.501 86.7312C766.119 86.4215 773.483 81.2838 773.483 81.2838C776.981 80.7813 779.218 72.0374 772.656 70.2468C766.094 68.4562 766.716 69.2653 763.558 71.563C760.401 73.8608 760.878 78.1063 756.873 79.6749C752.868 81.2436 740.995 75.1572 740.03 72.8511C739.064 70.5449 748.942 68.6465 745.021 63.2806C741.099 57.9148 744.696 57.705 738 56.3547C731.305 55.0043 726.226 62.1525 726.226 62.1525L720.636 67.9625Z" fill="#465734"/>
<path d="M329.501 21.6402C322.585 20.1099 319.18 20.409 316.07 28.176C316.07 28.176 323.181 33.7063 320.811 35.7173C318.441 37.7284 312.91 33.7063 312.91 33.7063C304.039 34.9448 302.049 36.5708 305.8 41.7504L305.888 41.8299C310.847 46.2917 313.656 48.8188 323.181 43.2587C323.181 43.2587 335.822 41.7504 342.142 45.7725C348.463 49.7945 325.551 51.8057 320.811 54.3193C316.07 56.8329 337.173 63.7076 351.623 59.8496C361.001 59.0018 363.525 57.3276 361.104 51.3028C358.326 42.8125 372.164 38.2313 376.115 38.2311C380.065 38.2309 381.645 45.7725 381.645 45.7725C381.645 45.7725 393.898 51.2682 401.396 48.789C407.485 45.0481 408.767 43.7355 410.087 41.7504C411.408 39.7653 415.03 35.9869 415.618 35.7173C416.205 35.4478 413.856 27.8925 410.087 28.176C406.318 28.4595 415.618 21.6402 415.618 21.6402C420.783 20.2905 420.834 11.2153 410.087 11.0823C399.341 10.9493 400.606 11.5852 396.656 14.6016C392.706 17.6179 395.076 21.6402 389.546 24.154C384.015 26.6677 363.474 23.6514 361.104 21.6402C358.733 19.629 373.135 15.3503 365.054 11.0823C356.973 6.81433 362.403 5.72586 351.623 6.05474C340.843 6.38362 335.822 14.6016 335.822 14.6016L329.501 21.6402Z" fill="#465734"/>
<path d="M318.499 54.6402C325.415 53.1099 328.82 53.409 331.93 61.176C331.93 61.176 324.819 66.7063 327.189 68.7173C329.559 70.7284 335.09 66.7063 335.09 66.7063C343.961 67.9448 345.951 69.5708 342.2 74.7504L342.112 74.8299C337.153 79.2917 334.344 81.8188 324.819 76.2587C324.819 76.2587 312.178 74.7504 305.858 78.7725C299.537 82.7945 322.449 84.8057 327.189 87.3193C331.93 89.8329 310.827 96.7076 296.377 92.8496C286.999 92.0018 284.475 90.3276 286.896 84.3028C289.674 75.8125 275.836 71.2313 271.885 71.2311C267.935 71.2309 266.355 78.7725 266.355 78.7725C266.355 78.7725 254.102 84.2682 246.604 81.789C240.515 78.0481 239.233 76.7355 237.913 74.7504C236.592 72.7653 232.97 68.9869 232.382 68.7173C231.795 68.4478 234.144 60.8925 237.913 61.176C241.682 61.4595 232.382 54.6402 232.382 54.6402C227.217 53.2905 227.166 44.2153 237.913 44.0823C248.659 43.9493 247.394 44.5852 251.344 47.6016C255.294 50.6179 252.924 54.6402 258.454 57.154C263.985 59.6677 284.526 56.6514 286.896 54.6402C289.267 52.629 274.865 48.3503 282.946 44.0823C291.027 39.8143 285.597 38.7259 296.377 39.0547C307.157 39.3836 312.178 47.6016 312.178 47.6016L318.499 54.6402Z" fill="#465734"/>
<path d="M1019.18 74.3652C1014.25 73.0576 1011.82 73.3132 1009.61 79.9504C1009.61 79.9504 1014.68 84.6763 1012.99 86.3948C1011.3 88.1133 1007.35 84.6763 1007.35 84.6763C1001.03 85.7347 999.609 87.1241 1002.28 91.5503L1002.35 91.6183C1005.88 95.4311 1007.89 97.5906 1014.68 92.8392C1014.68 92.8392 1023.69 91.5503 1028.2 94.9874C1032.7 98.4244 1016.37 100.143 1012.99 102.291C1009.61 104.439 1024.65 110.314 1034.96 107.017C1041.64 106.292 1043.44 104.862 1041.72 99.7133C1039.74 92.458 1049.6 88.5431 1052.42 88.543C1055.24 88.5428 1056.36 94.9874 1056.36 94.9874C1056.36 94.9874 1065.1 99.6837 1070.45 97.5651C1074.79 94.3683 1075.7 93.2467 1076.64 91.5503C1077.59 89.854 1080.17 86.6252 1080.59 86.3948C1081.01 86.1645 1079.33 79.7081 1076.64 79.9504C1073.96 80.1927 1080.59 74.3652 1080.59 74.3652C1084.27 73.2119 1084.31 65.4567 1076.64 65.3431C1068.98 65.2294 1069.88 65.7728 1067.07 68.3505C1064.25 70.9281 1065.94 74.3652 1062 76.5134C1058.05 78.6615 1043.41 76.0839 1041.72 74.3652C1040.03 72.6466 1050.3 68.9902 1044.53 65.3431C1038.77 61.6959 1042.64 60.7657 1034.96 61.0468C1027.27 61.3278 1023.69 68.3505 1023.69 68.3505L1019.18 74.3652Z" fill="#465734"/>
<path d="M1076.69 44.0337C1070.18 43.7859 1067.2 44.7184 1066.03 53.0777C1066.03 53.0777 1073.54 57.2969 1071.84 59.7521C1070.13 62.2074 1064.35 59.2056 1064.35 59.2056C1056.66 62.0949 1055.22 64.0937 1059.65 68.5861L1059.75 68.6493C1065.12 72.1977 1068.16 74.2075 1075.53 66.8671C1075.53 66.8671 1086.53 63.0068 1093.03 65.8618C1099.53 68.7167 1079.43 74.9895 1075.71 78.3887C1071.99 81.788 1092.31 84.7538 1104.45 78.2033C1112.67 75.6111 1114.58 73.4647 1111.16 67.8787C1106.91 59.8887 1118.34 52.7273 1121.88 51.993C1125.42 51.2587 1128.4 58.5207 1128.4 58.5207C1128.4 58.5207 1140.52 61.7496 1146.71 57.8723C1151.39 52.9929 1152.26 51.4397 1153.03 49.2055C1153.8 46.9714 1156.26 42.5128 1156.73 42.1335C1157.2 41.7542 1153.52 34.6214 1150.21 35.6058C1146.89 36.5903 1153.8 28.0301 1153.8 28.0301C1158.15 25.718 1156.3 16.6164 1146.65 18.4803C1137 20.3442 1138.27 20.7461 1135.36 24.5021C1132.45 28.2582 1135.41 31.8475 1130.98 35.3937C1126.55 38.9399 1107.53 39.7353 1104.99 38.1608C1102.45 36.5863 1114.45 29.6234 1106.33 26.8492C1098.21 24.075 1102.84 21.9754 1093.26 24.3082C1083.68 26.641 1080.89 35.8074 1080.89 35.8074L1076.69 44.0337Z" fill="#465734"/>
<path d="M1053.18 60.3652C1048.25 59.0576 1045.82 59.3132 1043.61 65.9504C1043.61 65.9504 1048.68 70.6763 1046.99 72.3948C1045.3 74.1133 1041.35 70.6763 1041.35 70.6763C1035.03 71.7347 1033.61 73.1241 1036.28 77.5503L1036.35 77.6183C1039.88 81.4311 1041.89 83.5906 1048.68 78.8392C1048.68 78.8392 1057.69 77.5503 1062.2 80.9874C1066.7 84.4244 1050.37 86.1431 1046.99 88.291C1043.61 90.439 1058.65 96.3137 1068.96 93.0169C1075.64 92.2924 1077.44 90.8618 1075.72 85.7133C1073.74 78.458 1083.6 74.5431 1086.42 74.543C1089.24 74.5428 1090.36 80.9874 1090.36 80.9874C1090.36 80.9874 1099.1 85.6837 1104.45 83.5651C1108.79 80.3683 1109.7 79.2467 1110.64 77.5503C1111.59 75.854 1114.17 72.6252 1114.59 72.3948C1115.01 72.1645 1113.33 65.7081 1110.64 65.9504C1107.96 66.1927 1114.59 60.3652 1114.59 60.3652C1118.27 59.2119 1118.31 51.4567 1110.64 51.3431C1102.98 51.2294 1103.88 51.7728 1101.07 54.3505C1098.25 56.9281 1099.94 60.3652 1096 62.5134C1092.05 64.6615 1077.41 62.0839 1075.72 60.3652C1074.03 58.6466 1084.3 54.9902 1078.53 51.3431C1072.77 47.6959 1076.64 46.7657 1068.96 47.0468C1061.27 47.3278 1057.69 54.3505 1057.69 54.3505L1053.18 60.3652Z" fill="#465734"/>
<path d="M658.909 51.8527C653.993 49.1699 651.339 48.6871 647.253 54.2133C647.253 54.2133 651.429 60.1223 649.182 61.2218C646.935 62.3213 643.624 57.9478 643.624 57.9478C636.609 57.0559 634.736 57.9293 636.437 62.8475L636.486 62.9296C639.265 67.5323 640.839 70.1392 649.31 67.7284C649.31 67.7284 659.251 69.2037 663.162 73.7445C667.072 78.2852 649.215 75.0359 645.055 76.0337C640.896 77.0316 655.407 86.9734 667.243 86.9608C674.558 88.2711 676.847 87.4725 676.344 82.1625C676.117 74.8141 687.649 74.096 690.651 74.9322C693.653 75.7684 693.18 82.1079 693.18 82.1079C693.18 82.1079 701.272 89.0782 707.52 88.6916C712.977 87.0019 714.242 86.2281 715.686 84.927C717.13 83.626 720.721 81.3842 721.227 81.294C721.734 81.2038 721.625 74.6906 718.697 74.1183C715.77 73.546 724.35 70.085 724.35 70.085C728.575 70.1039 730.626 62.8884 722.49 60.5073C714.353 58.1262 715.174 58.9006 711.502 60.466C707.831 62.0315 708.74 65.736 703.98 66.5667C699.22 67.3975 684.279 60.6467 682.924 58.5434C681.569 56.4402 693.462 56.0822 688.268 50.973C683.074 45.8638 687.442 46.1466 679.177 44.1262C670.912 42.1058 665.274 47.5863 665.274 47.5863L658.909 51.8527Z" fill="#465734"/>
<path d="M684.11 51.8527C679.194 49.1699 676.54 48.6871 672.454 54.2133C672.454 54.2133 676.631 60.1223 674.383 61.2218C672.136 62.3213 668.826 57.9478 668.826 57.9478C661.81 57.0559 659.937 57.9293 661.638 62.8475L661.687 62.9296C664.466 67.5323 666.04 70.1392 674.511 67.7284C674.511 67.7284 684.452 69.2037 688.363 73.7445C692.273 78.2852 674.416 75.0359 670.257 76.0337C666.097 77.0316 680.608 86.9734 692.444 86.9608C699.759 88.2711 702.049 87.4725 701.545 82.1625C701.318 74.8141 712.85 74.096 715.852 74.9322C718.854 75.7684 718.381 82.1079 718.381 82.1079C718.381 82.1079 726.474 89.0782 732.722 88.6916C738.178 87.0019 739.443 86.2281 740.887 84.927C742.331 83.626 745.922 81.3842 746.428 81.294C746.935 81.2038 746.826 74.6906 743.899 74.1183C740.972 73.546 749.551 70.085 749.551 70.085C753.776 70.1039 755.828 62.8884 747.691 60.5073C739.554 58.1262 740.375 58.9006 736.704 60.466C733.033 62.0315 733.941 65.736 729.181 66.5667C724.421 67.3975 709.48 60.6467 708.125 58.5434C706.77 56.4402 718.663 56.0822 713.469 50.973C708.276 45.8638 712.643 46.1466 704.378 44.1262C696.114 42.1058 690.475 47.5863 690.475 47.5863L684.11 51.8527Z" fill="#465734"/>
<path d="M690.591 30.579C685.376 26.3088 676.38 31.3922 677.091 37.579C677.803 43.7658 663.312 45.4995 658.591 45.579C653.871 45.6585 659.578 51.2885 654.091 54.079C648.604 56.8695 665.591 61.5791 665.591 67.079C665.591 72.5789 659.091 74.5791 665.591 80.079C672.091 85.5789 682.591 80.079 682.591 80.079C692.092 78.4836 691.091 76.5791 695.591 80.079C700.091 83.5789 700.091 87.579 700.091 87.579C714.625 102.899 729.091 87.579 729.091 87.579C729.091 87.579 729.228 77.1686 739.091 75.579C752.931 73.6072 747.591 64.079 747.591 60.579C747.591 57.079 749.222 49.6865 739.091 50.579C730.213 50.1787 733.371 42.7139 729.091 37.579C724.812 32.444 707.527 36.9179 700.091 45.579C692.655 54.2401 695.807 34.8492 690.591 30.579Z" fill="#7DB632"/>
<path d="M1143.58 35.5374C1143.63 30.8943 1141.61 27.6648 1137.9 29.0373C1134.18 30.4098 1135.98 22.8491 1128.4 19.5373C1120.81 16.2255 1114.1 29.3175 1108.4 29.0373C1102.69 28.7571 1090.69 20.508 1091.4 29.0373C1092.1 37.5666 1084.01 38.618 1082.9 39.0373C1081.79 39.4566 1077.21 34.5141 1075.4 40.5373C1073.59 46.5605 1071.24 43.3457 1068.4 45.5373C1065.55 47.7289 1078.9 51.5374 1079.4 55.0373C1079.9 58.5372 1089.54 51.5049 1088.4 55.0373C1087.26 58.5697 1080.2 64.8239 1082.9 66.5373C1085.6 68.2507 1087.2 71.1373 1088.4 71.5373C1089.6 71.9373 1093.9 65.5373 1098.9 66.5373C1103.9 67.5373 1102.9 58.5373 1108.4 58.0373C1113.9 57.5373 1115.4 59.0373 1120.4 58.0373C1125.4 57.0373 1121.4 65.5373 1125.4 69.0373C1129.4 72.5373 1139.9 74.0373 1140.4 69.0373C1140.9 64.0373 1148.09 65.9452 1149.4 63.0373C1150.7 60.1294 1148.06 56.7512 1142.46 56.0373C1137.9 59.5373 1136.84 49.302 1137.9 49.0373L1137.92 49.0319C1139.92 48.5304 1143.74 47.5763 1144.9 45.5373C1146.06 43.491 1146.55 39.1024 1143.58 35.5374Z" fill="#95D832"/>
<path d="M360.591 21.579C355.376 17.3088 346.38 22.3922 347.091 28.579C347.803 34.7658 333.312 36.4995 328.591 36.579C323.871 36.6585 329.578 42.2885 324.091 45.079C318.604 47.8695 335.591 52.5791 335.591 58.079C335.591 63.5789 329.091 65.5791 335.591 71.079C342.091 76.5789 352.591 71.079 352.591 71.079C362.092 69.4836 361.091 67.5791 365.591 71.079C370.091 74.5789 370.091 78.579 370.091 78.579C384.625 93.8991 399.091 78.579 399.091 78.579C399.091 78.579 399.228 68.1686 409.091 66.579C422.931 64.6072 417.591 55.079 417.591 51.579C417.591 48.079 419.222 40.6865 409.091 41.579C400.213 41.1787 403.371 33.7139 399.091 28.579C394.812 23.444 377.527 27.9179 370.091 36.579C362.655 45.2401 365.807 25.8492 360.591 21.579Z" fill="#7DB632"/>
<path d="M301.591 15.579C296.376 11.3088 287.38 16.3922 288.091 22.579C288.803 28.7658 274.312 30.4995 269.591 30.579C264.871 30.6585 270.578 36.2885 265.091 39.079C259.604 41.8695 276.591 46.5791 276.591 52.079C276.591 57.5789 270.091 59.5791 276.591 65.079C283.091 70.5789 293.591 65.079 293.591 65.079C303.092 63.4836 302.091 61.5791 306.591 65.079C311.091 68.5789 311.091 72.579 311.091 72.579C325.625 87.8991 340.091 72.579 340.091 72.579C340.091 72.579 340.228 62.1686 350.091 60.579C363.931 58.6072 358.591 49.079 358.591 45.579C358.591 42.079 360.222 34.6865 350.091 35.579C341.213 35.1787 344.371 27.7139 340.091 22.579C335.812 17.444 318.527 21.9179 311.091 30.579C303.655 39.2401 306.807 19.8492 301.591 15.579Z" fill="#7DB632"/>
<path d="M1034.09 48.2328C1027.12 45.9526 1022 55.5279 1026.06 61.9205C1030.12 68.3131 1018.3 76.7331 1014.18 78.9495C1010.06 81.1659 1018.22 84.6998 1014.92 90.2038C1011.63 95.7079 1029.23 93.1534 1032.29 99.1216C1035.34 105.09 1030.71 110.193 1039.5 113.228C1048.29 116.264 1054.5 105.557 1054.5 105.557C1062 99.5393 1060.06 97.9241 1065.97 99.6914C1071.88 101.459 1074.1 105.799 1074.1 105.799C1095.43 115.866 1099.69 92.7136 1099.69 92.7136C1099.69 92.7136 1094.03 81.355 1101.85 75.1795C1112.97 66.7949 1102.97 58.8648 1101.03 55.0668C1099.09 51.2688 1096.42 42.5112 1087.98 48.0508C1079.92 51.6228 1078.57 42.0975 1071.94 38.4563C1065.32 34.815 1052.55 47.4693 1050.79 60.2233C1049.04 72.9773 1041.06 50.513 1034.09 48.2328Z" fill="#7DB632"/>
<path d="M712.494 42.7098C709.353 43.5573 699.434 57.4638 690.058 43.1103C690.058 43.1103 686.266 38.7238 681.203 39.7508C676.14 40.7777 676.094 43.328 675.835 45.3542C667.063 45.6314 666.684 48.0505 672.035 55.3719C678.187 61.4528 670.786 67.2067 670.786 67.2067C670.786 67.2067 664.61 75.7295 676.262 79.4709C683.419 82.2003 686.983 82.8072 688.496 73.9258C695.37 70.947 698.69 74.8226 699.121 77.9573C699.553 81.092 697.485 81.1101 704.598 90.2215C711.71 99.3328 722.649 89.8192 720.373 86.0202C718.091 74.0639 721.912 82.6412 730.767 81.0507C739.622 79.4601 734.632 67.6616 732.152 66.7209C729.673 65.7803 718.242 64.423 720.164 54.5328C724.667 44.1766 715.636 41.8623 712.494 42.7098Z" fill="#ADEA32"/>
<path d="M1053.64 54.1413C1052.13 57.0243 1055.62 73.7457 1038.71 70.8977C1038.71 70.8977 1032.92 70.7081 1030.24 75.1245C1027.56 79.5409 1029.4 81.3045 1030.71 82.8692C1024.96 89.5025 1026.48 91.4222 1035.49 92.4574C1044.13 92.062 1043.34 101.403 1043.34 101.403C1043.34 101.403 1045.41 111.722 1056.07 105.699C1062.93 102.293 1065.79 100.086 1060.29 92.9498C1062.77 85.8781 1067.87 86.0681 1070.46 87.8777C1073.06 89.6872 1071.67 91.2185 1083.19 92.1738C1094.71 93.129 1095.14 78.638 1090.8 77.7334C1080.47 71.2995 1089.36 74.3103 1094.2 66.7254C1099.04 59.1406 1086.99 54.8034 1084.61 55.9869C1082.24 57.1704 1073.49 64.6483 1067.53 56.5267C1062.97 46.1928 1055.15 51.2584 1053.64 54.1413Z" fill="#ADEA32"/>
<path d="M327.989 43.0315C324.848 43.8791 314.929 57.7855 305.552 43.4321C305.552 43.4321 301.76 39.0456 296.697 40.0725C291.635 41.0995 291.589 43.6497 291.33 45.676C282.558 45.9532 282.178 48.3723 287.529 55.6937C293.682 61.7746 286.281 67.5285 286.281 67.5285C286.281 67.5285 280.105 76.0513 291.757 79.7927C298.914 82.5221 302.477 83.129 303.99 74.2476C310.865 71.2688 314.185 75.1443 314.616 78.2791C315.047 81.4138 312.98 81.4319 320.092 90.5432C327.205 99.6546 338.144 90.141 335.868 86.342C333.585 74.3856 337.407 82.963 346.262 81.3725C355.117 79.7819 350.126 67.9834 347.647 67.0427C345.167 66.102 333.736 64.7447 335.659 54.8546C340.162 44.4984 331.13 42.184 327.989 43.0315Z" fill="#ADEA32"/>
<path d="M352.989 32.0315C349.848 32.8791 339.929 46.7855 330.552 32.4321C330.552 32.4321 326.76 28.0456 321.697 29.0725C316.635 30.0995 316.589 32.6497 316.33 34.676C307.558 34.9532 307.178 37.3723 312.529 44.6937C318.682 50.7746 311.281 56.5285 311.281 56.5285C311.281 56.5285 305.105 65.0513 316.757 68.7927C323.914 71.5221 327.477 72.129 328.99 63.2476C335.865 60.2688 339.185 64.1443 339.616 67.2791C340.047 70.4138 337.98 70.4319 345.092 79.5432C352.205 88.6546 363.144 79.141 360.868 75.342C358.585 63.3856 362.407 71.963 371.262 70.3725C380.117 68.7819 375.126 56.9834 372.647 56.0427C370.167 55.102 358.736 53.7447 360.659 43.8546C365.162 33.4984 356.13 31.184 352.989 32.0315Z" fill="#ADEA32"/>
<path d="M279.287 56.7405C120.121 103.597 4 56.1116 4 56.1116L4.50052 108H1444V56.7408C1314.19 -12.6822 1112.72 44.5733 1087.63 56.7406C937.613 119.333 845.442 111.296 664.688 56.7405C520.022 15.5095 436.237 11.286 279.287 56.7405Z" fill="#F4F4F5"/>
<path d="M4 59H6V108H4V59Z" fill="#F4F4F5"/>
<path d="M4 103H1444V193H4V103Z" fill="#F4F4F5"/>
</g>
<defs>
<filter id="filter0_d_82_772" x="4" y="0" width="1440" height="195" filterUnits="userSpaceOnUse" color-interpolation-filters="sRGB">
<feFlood flood-opacity="0" result="BackgroundImageFix"/>
<feColorMatrix in="SourceAlpha" type="matrix" values="0 0 0 0 0 0 0 0 0 0 0 0 0 0 0 0 0 0 127 0" result="hardAlpha"/>
<feOffset dy="-2"/>
<feGaussianBlur stdDeviation="2"/>
<feComposite in2="hardAlpha" operator="out"/>
<feColorMatrix type="matrix" values="0 0 0 0 0 0 0 0 0 0 0 0 0 0 0 0 0 0 0.25 0"/>
<feBlend mode="normal" in2="BackgroundImageFix" result="effect1_dropShadow_82_772"/>
<feBlend mode="normal" in="SourceGraphic" in2="effect1_dropShadow_82_772" result="shape"/>
</filter>
</defs>
</svg>
